<?xml version="1.0" encoding="UTF-8"?>
<svg id="Layer_1" data-name="Layer 1" xmlns="http://www.w3.org/2000/svg" xmlns:xlink="http://www.w3.org/1999/xlink" viewBox="0 0 27.27 20.38">
  <defs>
    <style>
      .cls-1 {
        mask: url(#mask);
      }

      .cls-2 {
        filter: url(#luminosity-invert);
      }

      .cls-3 {
        filter: url(#luminosity-noclip);
      }

      .cls-4 {
        fill: #002aff;
      }

      .cls-5 {
        mask: url(#mask-1);
      }

      .cls-6 {
        fill: #fff;
        stroke: #000;
        stroke-miterlimit: 10;
        stroke-width: .25px;
      }
    </style>
    <filter id="luminosity-invert" color-interpolation-filters="sRGB" filterUnits="userSpaceOnUse">
      <feColorMatrix values="-1 0 0 0 1 0 -1 0 0 1 0 0 -1 0 1 0 0 0 1 0"/>
    </filter>
    <mask id="mask" x=".11" y="11.26" width="27.29" height="9.25" maskUnits="userSpaceOnUse">
      <g class="cls-2">
        <g id="KIND1">
          <path class="cls-6" d="M1.93,15.29h0s.81-1.08,2.41-3.24c.06-.09,.21-.28,.46-.41,.18-.09,.39-.14,.62-.14h.6c.14,0,.24,.06,.3,.19s.05,.24-.04,.35l-2.76,3.58c-.04,.06-.04,.11,0,.17l2.89,3.92c.09,.11,.1,.23,.04,.36s-.17,.19-.31,.19h-.6c-.46,0-.81-.18-1.07-.55l-2.54-3.6s-.02-.02-.02,0v3.47c0,.18-.07,.34-.2,.48-.14,.14-.3,.2-.48,.2h-.32c-.18,0-.34-.07-.47-.2-.13-.14-.2-.3-.2-.48v-7.39c0-.18,.07-.34,.2-.48,.13-.14,.29-.2,.47-.2h.32c.18,0,.34,.07,.48,.2s.2,.3,.2,.48v3.11s.02,.02,.02,0Z"/>
          <path class="cls-6" d="M8.71,20.26c-.18,0-.34-.07-.48-.2-.14-.14-.2-.3-.2-.48v-7.39c0-.18,.07-.34,.2-.48s.3-.2,.48-.2h.48c.18,0,.34,.07,.48,.2,.14,.14,.2,.3,.2,.48v7.39c0,.18-.07,.34-.2,.48s-.3,.2-.48,.2h-.48Z"/>
          <path class="cls-6" d="M12.69,20.26c-.18,0-.34-.07-.47-.2-.13-.14-.2-.3-.2-.48v-7.39c0-.18,.07-.34,.2-.48,.13-.14,.29-.2,.47-.2h.26c.46,0,.79,.2,1.01,.6l2.96,5.35s0,.02,.02,.02,0-.01,0-.02v-5.27c0-.18,.07-.34,.2-.48s.3-.2,.48-.2h.26c.18,0,.34,.07,.47,.2,.13,.14,.2,.3,.2,.48v7.39c0,.18-.07,.34-.2,.48-.13,.14-.29,.2-.47,.2h-.26c-.46,0-.79-.2-1.01-.6l-2.96-5.35s-.04,0-.02,0v5.27c0,.18-.07,.34-.2,.48-.14,.14-.3,.2-.48,.2h-.26Z"/>
          <path class="cls-6" d="M21.15,20.3c-.2-.02-.36-.11-.49-.26-.13-.15-.19-.32-.19-.52v-7.27c0-.2,.06-.37,.19-.52,.13-.15,.29-.23,.49-.26,.51-.06,1.08-.08,1.72-.08,1.42,0,2.51,.37,3.27,1.12,.76,.74,1.13,1.83,1.13,3.26,0,1.54-.38,2.69-1.13,3.46-.76,.77-1.85,1.16-3.27,1.16-.63,0-1.2-.03-1.72-.08Zm.98-7.4v5.98c0,.06,.03,.09,.1,.11,.26,.04,.5,.06,.72,.06,.94,0,1.7-.33,2.06-.76,.43-.51,.66-1.35,.66-2.51,0-1.05-.22-1.82-.67-2.3-.49-.53-1.13-.73-2.05-.73-.22,0-.46,.02-.72,.06-.06,.02-.1,.05-.1,.11Z"/>
        </g>
      </g>
    </mask>
    <mask id="mask-1" x="-.12" y="-.12" width="13.13" height="9.25" maskUnits="userSpaceOnUse">
      <g class="cls-2">
        <g class="cls-3">
          <g id="BE1_CLIPPER">
            <path class="cls-6" d="M.67,8.9c-.19-.02-.35-.1-.48-.25C.06,8.51,0,8.34,0,8.14V.86C0,.66,.06,.49,.19,.34,.32,.19,.48,.11,.68,.1,1.28,.03,1.85,0,2.4,0,4.64,0,5.76,.73,5.76,2.2c0,.49-.16,.91-.49,1.27-.33,.36-.76,.59-1.3,.7,0,0-.03,0-.03,.02,0,.03,.02,.02,.03,.02,.66,.1,1.17,.34,1.54,.73,.37,.39,.56,.87,.56,1.43,0,.88-.29,1.54-.86,1.98-.58,.44-1.47,.66-2.69,.66-.61,0-1.22-.03-1.85-.1ZM1.66,1.49V3.54c0,.07,.03,.11,.1,.11h.35c.74,0,1.28-.1,1.61-.31,.33-.2,.5-.51,.5-.91s-.14-.67-.41-.85-.72-.28-1.33-.28c-.28,0-.52,.02-.72,.05-.06,.02-.1,.06-.1,.13Zm0,3.5v2.52c0,.06,.04,.1,.11,.12,.28,.04,.54,.06,.79,.06,.66,0,1.15-.12,1.46-.37,.31-.24,.46-.62,.46-1.12,0-.45-.18-.78-.53-.99s-.94-.35-1.77-.35h-.42c-.06,0-.1,.06-.1,.13Z"/>
            <path class="cls-6" d="M8.11,8.88c-.18,0-.34-.07-.48-.2s-.2-.3-.2-.48V.8c0-.18,.07-.34,.2-.48,.14-.14,.3-.2,.48-.2h4.08c.18,0,.34,.07,.48,.2,.14,.14,.2,.3,.2,.48s-.07,.34-.2,.47-.3,.2-.48,.2h-2.98c-.07,0-.11,.04-.11,.11v1.93c0,.07,.04,.11,.11,.11h2.77c.18,0,.34,.06,.46,.19,.12,.13,.19,.28,.19,.46s-.06,.33-.19,.45-.28,.19-.46,.19h-2.77s-.11,.04-.11,.11v2.4c0,.07,.04,.11,.11,.11h2.98c.18,0,.34,.07,.48,.2,.14,.13,.2,.29,.2,.47s-.07,.34-.2,.48c-.14,.14-.3,.2-.48,.2h-4.08Z"/>
          </g>
        </g>
      </g>
    </mask>
  </defs>
  <g class="cls-1">
    <g id="KIND1-2" data-name="KIND1">
      <path class="cls-4" d="M.9,20.26c-.18,0-.34-.07-.47-.2-.13-.14-.2-.3-.2-.48v-7.39c0-.18,.07-.34,.2-.48,.13-.14,.29-.2,.47-.2h.32c.18,0,.34,.07,.48,.2s.2,.3,.2,.48v3.11s0,.01,.01,.01c0,0,.01,0,.01-.01l2.41-3.24c.26-.37,.62-.55,1.08-.55h.6c.14,0,.24,.06,.3,.19s.05,.24-.04,.35l-2.76,3.58c-.04,.06-.04,.11,0,.17l2.89,3.92c.09,.11,.1,.23,.04,.36s-.17,.19-.31,.19h-.6c-.46,0-.81-.18-1.07-.55l-2.54-3.6s0-.01-.01-.01c0,0-.01,0-.01,.01v3.47c0,.18-.07,.34-.2,.48-.14,.14-.3,.2-.48,.2h-.32Z"/>
      <path class="cls-4" d="M8.71,20.26c-.18,0-.34-.07-.48-.2-.14-.14-.2-.3-.2-.48v-7.39c0-.18,.07-.34,.2-.48s.3-.2,.48-.2h.48c.18,0,.34,.07,.48,.2,.14,.14,.2,.3,.2,.48v7.39c0,.18-.07,.34-.2,.48s-.3,.2-.48,.2h-.48Z"/>
      <path class="cls-4" d="M12.69,20.26c-.18,0-.34-.07-.47-.2-.13-.14-.2-.3-.2-.48v-7.39c0-.18,.07-.34,.2-.48,.13-.14,.29-.2,.47-.2h.26c.46,0,.79,.2,1.01,.6l2.96,5.35s0,.01,.01,.01c0,0,.01,0,.01-.01v-5.27c0-.18,.07-.34,.2-.48s.3-.2,.48-.2h.26c.18,0,.34,.07,.47,.2,.13,.14,.2,.3,.2,.48v7.39c0,.18-.07,.34-.2,.48-.13,.14-.29,.2-.47,.2h-.26c-.46,0-.79-.2-1.01-.6l-2.96-5.35s0-.01-.01-.01c0,0-.01,0-.01,.01v5.27c0,.18-.07,.34-.2,.48-.14,.14-.3,.2-.48,.2h-.26Z"/>
      <path class="cls-4" d="M21.15,20.3c-.2-.02-.36-.11-.49-.26-.13-.15-.19-.32-.19-.52v-7.27c0-.2,.06-.37,.19-.52,.13-.15,.29-.23,.49-.26,.51-.06,1.08-.08,1.72-.08,1.42,0,2.51,.37,3.27,1.12,.76,.74,1.13,1.83,1.13,3.26,0,1.54-.38,2.69-1.13,3.46-.76,.77-1.85,1.16-3.27,1.16-.63,0-1.2-.03-1.72-.08Zm.98-7.4v5.98c0,.06,.03,.09,.1,.11,.26,.04,.5,.06,.72,.06,.94,0,1.62-.25,2.06-.76,.44-.51,.66-1.35,.66-2.51,0-1.05-.22-1.82-.67-2.3-.45-.49-1.13-.73-2.05-.73-.22,0-.46,.02-.72,.06-.06,.02-.1,.05-.1,.11Z"/>
    </g>
  </g>
  <g class="cls-5">
    <g id="BE1">
      <path class="cls-4" d="M.67,8.9c-.19-.02-.35-.1-.48-.25-.13-.15-.19-.32-.19-.52V.86c0-.2,.06-.37,.19-.52C.32,.19,.48,.11,.68,.1c.59-.06,1.16-.1,1.72-.1,2.24,0,3.36,.73,3.36,2.2,0,.49-.16,.91-.49,1.27-.33,.36-.76,.59-1.3,.7,0,0-.01,0-.01,.01,0,.02,0,.02,.01,.02,.66,.1,1.17,.34,1.54,.73,.37,.39,.56,.87,.56,1.43,0,.88-.29,1.54-.86,1.98-.58,.44-1.47,.66-2.69,.66-.61,0-1.22-.03-1.85-.1ZM1.66,1.49V3.54c0,.07,.03,.11,.1,.11h.35c.74,0,1.28-.1,1.61-.31,.33-.2,.5-.51,.5-.91s-.14-.67-.41-.85-.72-.28-1.33-.28c-.28,0-.52,.02-.72,.05-.06,.02-.1,.06-.1,.13Zm0,3.5v2.52c0,.06,.04,.1,.11,.12,.28,.04,.54,.06,.79,.06,.66,0,1.15-.12,1.46-.37,.31-.24,.46-.62,.46-1.12,0-.45-.18-.78-.53-.99s-.94-.35-1.77-.35h-.42c-.06,0-.1,.06-.1,.13Z"/>
      <path class="cls-4" d="M8.11,8.88c-.18,0-.34-.07-.48-.2s-.2-.3-.2-.48V.8c0-.18,.07-.34,.2-.48,.14-.14,.3-.2,.48-.2h4.08c.18,0,.34,.07,.48,.2,.14,.14,.2,.3,.2,.48s-.07,.34-.2,.47-.3,.2-.48,.2h-2.98c-.07,0-.11,.04-.11,.11v1.93c0,.07,.04,.11,.11,.11h2.77c.18,0,.34,.06,.46,.19,.12,.13,.19,.28,.19,.46s-.06,.33-.19,.45-.28,.19-.46,.19h-2.77c-.07,0-.11,.04-.11,.11v2.4c0,.07,.04,.11,.11,.11h2.98c.18,0,.34,.07,.48,.2,.14,.13,.2,.29,.2,.47s-.07,.34-.2,.48c-.14,.14-.3,.2-.48,.2h-4.08Z"/>
    </g>
  </g>
</svg>